<svg width="297" height="75" viewBox="0 0 297 75" fill="none" xmlns="http://www.w3.org/2000/svg">
<path d="M21.3822 38.5755C23.0452 38.3755 28.7753 38.2136 34.0043 38.3016C42.3233 38.4416 46.1463 38.0953 47.3803 37.2723C47.7603 37.0593 51.8803 34.6577 52.2973 29.9207C52.4725 27.6362 51.7956 25.3676 50.3972 23.5526C49.3924 22.3327 48.0995 21.3823 46.6353 20.7874C45.4867 20.3224 44.2494 20.1174 43.0122 20.1873C40.4122 20.1243 38.7122 20.0676 36.6582 20.0496C36.3422 20.0496 35.3752 20.0496 33.6582 20.0496C31.7672 20.0496 30.2072 20.0607 29.1312 20.0667C26.975 20.1234 24.8427 20.5347 22.8202 21.2845C23.9403 19.6059 25.338 18.1304 26.9533 16.9207C29.1236 15.2294 31.7769 14.2747 34.5272 14.1956C37.5508 13.9929 40.5829 13.9476 43.6112 14.0604C46.7712 14.3214 48.8452 14.6603 51.2732 15.9803C52.7548 16.8049 54.0825 17.88 55.1973 19.1576C57.2246 21.4486 58.5323 24.2862 58.9573 27.3158C59.2229 29.3248 59.0869 31.3665 58.5573 33.3226C57.7812 36.2136 56.1566 38.8056 53.8932 40.7645C50.8182 43.3775 48.3202 44.3147 43.0552 44.4647C40.6902 44.5207 39.9312 44.4994 30.3302 44.4994C22.5452 44.5124 18.8732 44.5204 16.7142 45.7684C13.8862 47.4034 11.0823 50.9076 11.0203 50.8446C10.6923 50.5196 14.3522 39.3195 21.3822 38.5755Z" fill="#0D71FC"/>
<path d="M46.4223 29.1334C46.3749 28.2884 46.0179 27.4906 45.4195 26.8922C44.821 26.2938 44.0232 25.9366 43.1782 25.8893C43.1062 25.8893 43.0343 25.8896 42.9633 25.8976C42.8923 25.9056 42.8192 25.8893 42.7462 25.8893H24.7372C24.125 25.8734 23.5186 26.0113 22.9732 26.2896C22.6024 26.4679 22.2573 26.695 21.9472 26.9654C21.2803 27.5899 20.6709 28.273 20.1262 29.0064C19.6262 29.6614 19.2472 30.2596 19.0482 30.5836C18.1245 32.0909 17.319 33.6675 16.6392 35.2994C17.8581 34.1816 19.3255 33.3697 20.9202 32.9313C22.2065 32.6223 23.5234 32.4585 24.8462 32.4425H42.7462C42.9913 32.4507 43.2367 32.4401 43.4802 32.4112C44.2799 32.3028 45.0148 31.9136 45.5537 31.3131C46.0927 30.7126 46.4006 29.94 46.4223 29.1334Z" fill="#06011F"/>
<path d="M122.006 50.8545H116.856V17.4126L116.794 15.1548L113.16 15.1235C113.181 14.8235 113.224 14.2329 113.224 14.2329L122.006 14.0015V50.8545Z" fill="#0D71FC"/>
<path d="M123.79 25.5098C123.782 25.9605 123.773 26.4112 123.764 26.8618L127.316 26.7549C127.328 27.0469 127.34 27.3399 127.351 27.6319V50.8516H132.568L132.61 24.7227L123.79 25.5098Z" fill="#0D71FC"/>
<path d="M129.047 21.1237C131.014 21.1237 132.608 19.5294 132.608 17.5627C132.608 15.596 131.014 14.0017 129.047 14.0017C127.081 14.0017 125.486 15.596 125.486 17.5627C125.486 19.5294 127.081 21.1237 129.047 21.1237Z" fill="#0D71FC"/>
<path d="M113.481 37.5423C113.481 45.2813 108.156 50.8543 100.416 50.8543C93.2963 50.8543 87.7242 45.8394 87.7242 38.1004C87.6749 36.3464 87.9809 34.6007 88.6238 32.9681C89.2667 31.3354 90.2334 29.8494 91.4654 28.5999C92.6974 27.3504 94.1693 26.3634 95.7928 25.6976C97.4162 25.0317 99.1576 24.7008 100.912 24.7254C102.592 24.6973 104.259 25.0114 105.813 25.6487C107.367 26.2861 108.775 27.2337 109.951 28.4329C111.127 29.6322 112.047 31.0581 112.654 32.6243C113.26 34.1905 113.542 35.8637 113.481 37.5423ZM100.169 26.5823C96.0822 26.5823 93.0481 30.4822 93.0481 37.2942C93.0481 42.9282 95.5872 48.9944 101.036 48.9944C106.485 48.9944 108.156 43.2945 108.156 38.5315C108.156 33.2695 106.05 26.5823 100.169 26.5823Z" fill="#0D71FC"/>
<path d="M82.4073 15.3226C79.3333 13.6226 75.8342 14.0413 73.8072 14.0643L59.3883 14.2328L59.4352 16.6927L63.6153 16.6976C63.6253 17.1756 63.6329 17.6574 63.6383 18.1434C63.6489 19.1387 63.6489 20.1193 63.6383 21.0853V43.5985C63.6383 45.9785 63.6383 50.8553 63.6383 50.8553H69.0233C69.0086 45.7313 68.9943 40.6074 68.9803 35.4828C68.9803 35.3008 68.9803 35.1181 68.9803 34.9354H68.9933V33.1708C68.9933 28.4374 68.9899 23.7039 68.9833 18.9706L68.9222 16.3563H69.6073C72.6673 16.3563 72.8402 16.2976 73.4422 16.3246C75.1637 16.3806 76.8336 16.9249 78.2572 17.8944C79.0282 18.4456 79.6946 19.13 80.2252 19.9154C81.0986 21.3211 81.5988 22.9265 81.6783 24.5794C81.5673 25.1794 81.7782 29.2897 78.8182 31.5917C77.2852 32.7817 75.3602 32.9667 73.3492 33.1917C72.2691 33.3103 71.1807 33.3345 70.0963 33.2645V35.2084L75.9242 35.1874C77.7142 35.1335 79.4747 34.7175 81.0992 33.9637C83.0524 33.1438 84.7287 31.7794 85.9283 30.0335C86.7221 28.942 87.2992 27.7086 87.6283 26.3998C88.0588 24.2377 87.7837 21.9944 86.8438 20.0003C85.904 18.0063 84.349 16.3666 82.4073 15.3226Z" fill="#0D71FC"/>
<path d="M164.401 25.5098L164.375 26.8618L167.927 26.7549C167.939 27.0469 167.95 27.3399 167.963 27.6319V50.8516H173.18C173.194 42.1423 173.208 33.4327 173.222 24.7227L164.401 25.5098Z" fill="#06011F"/>
<path d="M169.657 21.1237C171.624 21.1237 173.218 19.5294 173.218 17.5627C173.218 15.596 171.624 14.0017 169.657 14.0017C167.691 14.0017 166.096 15.596 166.096 17.5627C166.096 19.5294 167.691 21.1237 169.657 21.1237Z" fill="#06011F"/>
<path d="M284.582 43.6669C284.591 43.9129 284.589 44.2666 284.626 47.2606C284.644 48.6856 284.662 50.1108 284.671 50.8558H278.888V48.0668C278.251 48.7088 275.77 50.8558 269.382 50.8558C267.189 50.8558 262.883 50.5626 260.54 47.7806C260.063 47.2858 259.689 46.7012 259.44 46.0609C259.191 45.4206 259.072 44.7374 259.089 44.0506C259.876 35.7616 278.47 37.0399 278.568 37.0409C278.568 37.0409 278.816 33.1238 278.677 31.8978C278.437 29.7768 278.011 29.1839 277.688 28.8519C276.396 27.5199 274.216 27.4219 273.432 27.3309C271.033 27.1619 268.622 27.2719 266.249 27.6595C265.028 27.899 263.837 28.2653 262.692 28.7518C262.678 28.3425 262.663 27.9331 262.647 27.5238C265.33 26.1983 268.221 25.3434 271.193 24.996C274.912 24.557 279.349 23.9035 282.149 26.5365C283.426 27.77 284.229 29.4126 284.418 31.1776C284.749 34.2346 284.603 36.9249 284.582 43.6669ZM278.582 38.5755C276.753 38.2415 267.41 37.9237 264.549 41.3387C263.903 41.9693 263.473 42.7889 263.323 43.6796C263.167 45.8866 266.357 47.5345 266.865 47.7855C272.254 49.8065 277.174 48.17 278.565 45.517C278.725 44.0256 278.784 42.525 278.743 41.0257C278.721 40.1717 278.662 39.3536 278.586 38.5746L278.582 38.5755Z" fill="#06011F"/>
<path d="M252.687 50.8546C252.712 50.1261 252.698 49.3966 252.645 48.6696C252.61 48.1856 252.56 47.7247 252.499 47.2897V47.2316C251.047 47.9316 247.475 50.8556 243.116 50.8556C239.302 50.8556 235.791 49.1027 235.791 43.1417C235.787 37.7944 235.783 32.4468 235.778 27.0988L231.833 26.9806C231.986 26.4839 232.138 25.9878 232.29 25.4918L240.635 24.6735V42.2057C240.635 46.2977 242.874 48.1056 245.84 48.1056C247.144 48.1081 248.424 47.7489 249.536 47.068C250.648 46.3871 251.55 45.4112 252.14 44.2487C252.501 43.2573 252.645 42.2002 252.563 41.1486V29.5826C252.551 28.7586 252.537 27.9356 252.524 27.1129L248.394 26.9938C248.528 26.4778 248.661 25.9611 248.794 25.4445C251.543 25.0905 257.404 24.6735 257.404 24.6735V46.0045C257.404 47.6312 257.38 49.2483 257.332 50.8556L252.687 50.8546Z" fill="#06011F"/>
<path d="M222.824 27.117L226.058 26.534C226.56 26.4673 227.072 26.4037 227.595 26.3431C228.746 26.2161 229.86 26.1271 230.93 26.0711V28.3768C228.531 28.1199 226.105 28.3111 223.776 28.9407C224.083 29.5236 224.355 30.1251 224.588 30.741C225.069 31.9026 225.344 33.1389 225.4 34.3948C225.4 41.2798 219.489 43.6829 214.227 43.6829C213.294 43.6948 212.361 43.6519 211.433 43.554C210.837 43.8911 210.279 44.2913 209.768 44.7479C208.947 45.4829 208.081 46.2737 208.101 47.3187C208.116 47.6482 208.205 47.9706 208.363 48.2601C208.911 49.3271 210.163 50.0721 212.224 50.5921C213.685 50.9621 215.787 51.1018 219.868 50.8748C220.225 50.8168 224.487 50.1978 226.868 53.0618C227.892 54.4367 228.384 56.1358 228.253 57.845C228.253 65.445 220.719 68.1097 214.482 68.1097C208.051 68.1097 202.53 65.5098 202.53 59.7288V59.6649C202.53 56.6769 205.973 53.365 209.481 53.365C206.623 53.236 204.025 51.4157 204.025 48.8177C204.025 46.6097 206.103 44.2709 209.091 43.0359V42.9061C206.558 42.1921 203.179 39.7238 203.179 34.3968C203.179 30.1088 206.102 24.7181 214.612 24.7181C217.084 24.6868 219.522 25.2907 221.693 26.472L222.824 27.117ZM205.957 57.99C205.509 59.925 206.921 61.6399 207.317 62.1209C210.153 65.5699 215.578 64.9819 216.311 64.8929C220.365 64.3929 225.319 61.732 225.254 58.722C225.186 58.1465 225.003 57.5904 224.716 57.0872C224.428 56.584 224.043 56.1437 223.581 55.7928C222.196 54.6488 220.95 54.9416 216.73 54.7986C211.465 54.6196 210.337 54.0601 208.467 55.1131C207.874 55.395 207.344 55.7955 206.912 56.2903C206.479 56.7852 206.153 57.3639 205.953 57.99H205.957ZM208.77 34.3978C208.807 35.0248 209.156 39.7299 212.148 41.2059C212.912 41.5716 213.75 41.7536 214.597 41.7371C215.443 41.7206 216.274 41.5059 217.022 41.1107C219.907 39.5267 220.112 35.0458 220.138 34.3978C220.195 32.9738 220.312 30.072 218.271 28.387C217.128 27.6175 215.782 27.2018 214.404 27.1922C213.025 27.1826 211.675 27.5794 210.52 28.3328C208.511 29.9958 208.681 32.9038 208.77 34.3978Z" fill="#06011F"/>
<path d="M201.019 50.8546H196.271V34.5026C196.24 33.9076 196.026 30.8538 193.854 29.0968C191.715 27.3678 188.435 28.2416 187.217 28.5436C186.212 28.7955 185.245 29.1769 184.338 29.6779C184.379 36.7372 184.421 43.796 184.462 50.8546H179.714C179.714 42.8153 179.714 34.7758 179.714 26.7365L175.439 26.8478V25.4845L184.247 24.6735L184.226 28.3737C185.286 27.3383 186.524 26.5034 187.881 25.9088C189.065 25.419 190.31 25.0903 191.581 24.9318C192.374 24.8108 192.981 24.7737 193.33 24.7487C194.114 24.6933 194.902 24.7467 195.671 24.9069C196.636 25.0365 197.556 25.394 198.355 25.9498C201.46 28.2868 201.055 33.5077 201.018 33.8717L201.019 50.8546Z" fill="#06011F"/>
<path d="M163.055 42.8188C161.495 48.4568 158.496 47.9956 158.496 47.9956C158.496 47.9956 154.696 48.1107 152.737 48.1377C150.981 48.1617 149.351 48.1549 147.964 48.1519C146.864 48.1519 145.937 48.1437 145.281 48.1387V14.0015L140.316 14.1226H139.859V14.1357L135.966 14.2305C135.966 14.2305 135.921 14.8125 135.898 15.1025L139.752 15.1338C139.765 15.5725 139.779 16.0107 139.791 16.4487L139.717 19.0068V45.9165C139.663 47.1415 139.84 50.8296 139.849 50.8296C143.229 50.8296 147.764 50.8906 161.696 50.8296C162.17 50.8296 162.565 50.8296 162.841 50.8296L164.294 42.6777L163.055 42.8188Z" fill="#06011F"/>
</svg>
